<svg width="180" height="34" viewBox="0 0 180 34" fill="none" xmlns="http://www.w3.org/2000/svg">
<g clip-path="url(#clip0_2143_3028)">
<path d="M48.0725 18.7535C48.0725 26.1544 45.6614 28.8837 39.0139 28.8837C32.3665 28.8837 29.9553 26.1544 29.9553 18.7535C29.9553 11.3526 32.4 8.62326 39.0139 8.62326C45.6279 8.62326 48.0725 11.3861 48.0725 18.7535ZM33.4716 18.7535C33.4716 24.3628 34.8111 26.0372 39.0139 26.0372C43.2167 26.0372 44.5897 24.3795 44.5897 18.7535C44.5897 13.1274 43.2 11.4698 39.0139 11.4698C34.8279 11.4698 33.4716 13.1274 33.4716 18.7535Z" fill="#323A3D"/>
<path d="M68.3999 11.7879H67.2948C65.1181 11.7879 63.1423 12.6921 60.0948 14.2326V28.3479H56.7292V9.0921H59.3413L59.693 12.1395C62.4558 9.92931 65.3023 8.62326 67.9144 8.62326H68.7851L68.3832 11.7879H68.3999Z" fill="#323A3D"/>
<path d="M92.6624 18.7535C92.6624 26.1544 90.2512 28.8837 83.6038 28.8837C76.9563 28.8837 74.5452 26.1544 74.5452 18.7535C74.5452 11.3526 76.9898 8.62326 83.6038 8.62326C90.2177 8.62326 92.6624 11.3861 92.6624 18.7535ZM78.0614 18.7535C78.0614 24.3628 79.401 26.0372 83.6038 26.0372C87.8066 26.0372 89.1796 24.3795 89.1796 18.7535C89.1796 13.1274 87.7898 11.4698 83.6038 11.4698C79.4177 11.4698 78.0614 13.1274 78.0614 18.7535Z" fill="#323A3D"/>
<path d="M115.836 9.20929L115.552 11.6539C113.141 11.5702 110.646 11.453 108.234 11.453C104.668 11.4195 103.496 11.4865 103.496 13.8977C103.496 15.9237 104.45 16.2251 106.309 16.6605L111.918 17.933C114.966 18.6865 116.389 19.9591 116.389 23.2409C116.389 27.9795 113.743 28.7832 108.167 28.7832C106.778 28.7832 103.898 28.7498 100.616 28.2307L100.85 25.786C102.742 25.9032 105.003 25.987 107.498 25.9367C111.818 25.9367 113.157 25.5349 113.157 23.2409C113.157 21.3488 111.968 20.9805 110.11 20.5451L104.567 19.2726C101.436 18.5191 100.214 17.0623 100.214 13.8977C100.214 9.42697 102.474 8.52278 107.732 8.58976C110.26 8.62325 113.475 8.82418 115.836 9.17581V9.20929Z" fill="#6CC5D9"/>
<path d="M142.007 18.7535C142.007 26.1544 139.596 28.8837 132.949 28.8837C126.301 28.8837 123.89 26.1544 123.89 18.7535C123.89 11.3526 126.335 8.62326 132.949 8.62326C139.563 8.62326 142.007 11.3861 142.007 18.7535ZM127.407 18.7535C127.407 24.3628 128.746 26.0372 132.949 26.0372C137.152 26.0372 138.525 24.3795 138.525 18.7535C138.525 13.1274 137.135 11.4698 132.949 11.4698C128.763 11.4698 127.407 13.1274 127.407 18.7535Z" fill="#6CC5D9"/>
<path d="M158.936 2.76279C156.407 2.76279 155.487 3.66698 155.487 6.01116V9.09209H161.648V11.7377H155.487V28.3479H152.121V11.7544H148.638V9.30977L152.121 9.10884V5.65954C152.121 2.05954 153.628 0 157.747 0C159.02 0 161.665 0.0837209 163.172 0.267907L162.887 2.76279H158.936Z" fill="#6CC5D9"/>
<path d="M173.872 23.0568C173.872 24.9154 174.575 25.6186 176.484 25.6186H179.414L179.816 28.1972C178.543 28.5488 176.417 28.7163 175.462 28.7163C172.214 28.7163 170.523 26.8577 170.523 23.4921V11.7544H167.04V9.30978L170.523 9.10885V3.39908H173.888V9.0921H180.017V11.7377H173.888V23.0568H173.872Z" fill="#6CC5D9"/>
<path d="M0.351606 30.7256C-0.418626 31.9814 0.0836993 32.6177 1.47347 32.1321L10.4651 29.0511C10.867 28.9172 11.319 28.6828 11.7544 28.4149L12.24 27.9795C9.51068 25.0493 7.38416 21.8344 6.74789 20.2772L0.351606 30.7256Z" fill="#323A3D"/>
<path d="M26.1711 4.90604L16.3423 8.02045C16.0744 8.10418 15.773 8.23813 15.4883 8.38883L16.7776 14.5339L16.6939 14.4L15.1032 11.2186C14.4502 9.91255 12.7925 8.37208 11.453 7.80278L1.89204 3.85115C0.535759 3.28185 -5.54025e-05 3.88464 0.686456 5.19069L11.7376 25.8363C12.4241 27.1256 14.0985 28.6828 15.4381 29.2688L24.1283 33.12C25.4679 33.706 26.0372 33.12 25.3674 31.8139L18.9711 19.0214L27.2427 6.32929C28.0465 5.10697 27.5609 4.45394 26.1544 4.90604H26.1711Z" fill="#323A3D"/>
</g>
<defs>
<clipPath id="clip0_2143_3028">
<rect width="180" height="33.3377" fill="white"/>
</clipPath>
</defs>
</svg>
